<svg width="40" height="26" viewBox="0 0 40 26" fill="none" xmlns="http://www.w3.org/2000/svg">
<rect width="40" height="26" fill="#B2FCE4"/>
<path d="M30.0933 11.4664L27.7604 16.2838H26.8121L27.6846 14.482L26.3 11.4664H27.2483L28.1303 13.4863L29.0786 11.4664H30.0933ZM21.2171 13.1734C21.2171 12.9858 21.1615 12.8024 21.0573 12.6465C20.9531 12.4905 20.805 12.369 20.6317 12.2972C20.4584 12.2255 20.2677 12.2067 20.0838 12.2433C19.8998 12.2799 19.7308 12.3702 19.5982 12.5028C19.4656 12.6354 19.3753 12.8044 19.3387 12.9883C19.3021 13.1723 19.3209 13.363 19.3926 13.5363C19.4644 13.7095 19.586 13.8576 19.7419 13.9618C19.8979 14.066 20.0812 14.1217 20.2688 14.1217C20.5203 14.1217 20.7615 14.0218 20.9393 13.8439C21.1172 13.6661 21.2171 13.4249 21.2171 13.1734ZM18.5144 16.2743V11.4664H19.3584V11.9121C19.4864 11.7517 19.6497 11.6229 19.8355 11.5358C20.0214 11.4486 20.2248 11.4054 20.43 11.4095C20.6554 11.413 20.8777 11.4619 21.0838 11.5532C21.2899 11.6446 21.4755 11.7765 21.6295 11.9411C21.7835 12.1057 21.9027 12.2997 21.9801 12.5114C22.0576 12.7231 22.0915 12.9482 22.08 13.1734C22.0889 13.3999 22.0526 13.6259 21.9731 13.8382C21.8937 14.0506 21.7728 14.2449 21.6174 14.41C21.462 14.5751 21.2753 14.7076 21.0682 14.7997C20.8611 14.8919 20.6377 14.9418 20.411 14.9467C20.215 14.951 20.0205 14.9115 19.8417 14.8311C19.6629 14.7507 19.5042 14.6315 19.3774 14.482V16.2838L18.5144 16.2743ZM25.1146 13.1734C25.1146 12.9218 25.0147 12.6806 24.8369 12.5028C24.659 12.325 24.4178 12.225 24.1663 12.225C23.9148 12.225 23.6736 12.325 23.4958 12.5028C23.3179 12.6806 23.218 12.9218 23.218 13.1734C23.218 13.4249 23.3179 13.6661 23.4958 13.8439C23.6736 14.0218 23.9148 14.1217 24.1663 14.1217C24.4178 14.1217 24.659 14.0218 24.8369 13.8439C25.0147 13.6661 25.1146 13.4249 25.1146 13.1734ZM25.1146 14.8803V14.4346C24.9837 14.5941 24.8186 14.7222 24.6314 14.8092C24.4443 14.8962 24.2399 14.9399 24.0336 14.9372C23.8086 14.9337 23.5866 14.8848 23.381 14.7934C23.1754 14.7019 22.9904 14.5698 22.8372 14.4051C22.6839 14.2403 22.5656 14.0463 22.4893 13.8346C22.4129 13.6229 22.3802 13.398 22.393 13.1734C22.3841 12.9468 22.4205 12.7208 22.4999 12.5085C22.5793 12.2961 22.7003 12.1018 22.8556 11.9367C23.011 11.7716 23.1977 11.6391 23.4048 11.547C23.612 11.4548 23.8354 11.4049 24.062 11.4C24.2633 11.3977 24.4625 11.4408 24.6447 11.5262C24.827 11.6116 24.9876 11.737 25.1146 11.8931V11.4664H25.9586V14.8898L25.1146 14.8803ZM16.9971 11.8078C17.1149 11.6325 17.2906 11.5042 17.4934 11.4453C17.6962 11.3863 17.9132 11.4005 18.1066 11.4854V12.3578C17.9229 12.2518 17.7109 12.2054 17.4997 12.225C17.3531 12.2549 17.223 12.3387 17.1352 12.4599C17.0474 12.581 17.0083 12.7307 17.0255 12.8794V14.9088H16.1626V11.4664H16.9971V11.8078ZM36.6177 11.2767L35.6219 10.7077L34.6167 10.1293C34.464 10.0433 34.2915 9.99875 34.1163 10C33.9411 10.0013 33.7692 10.0484 33.6178 10.1365C33.4664 10.2247 33.3406 10.3509 33.253 10.5027C33.1654 10.6545 33.119 10.8265 33.1184 11.0017V11.125C33.1172 11.1594 33.1255 11.1934 33.1422 11.2235C33.1589 11.2536 33.1834 11.2785 33.2132 11.2957L33.6874 11.5707C33.7167 11.5877 33.75 11.5964 33.7839 11.5962C33.8177 11.5959 33.8509 11.5866 33.8799 11.5692C33.9089 11.5517 33.9328 11.5269 33.949 11.4971C33.9651 11.4674 33.973 11.4338 33.9719 11.4V11.0965C33.9686 11.0588 33.9762 11.0208 33.9937 10.9872C34.0112 10.9535 34.038 10.9256 34.0709 10.9067C34.1038 10.8878 34.1414 10.8786 34.1793 10.8803C34.2172 10.882 34.2538 10.8945 34.2848 10.9164L35.2331 11.4474L36.1814 11.9785C36.2109 11.9962 36.2353 12.0212 36.2522 12.0511C36.2691 12.081 36.278 12.1148 36.278 12.1492C36.278 12.1835 36.2691 12.2173 36.2522 12.2472C36.2353 12.2771 36.2109 12.3022 36.1814 12.3199L35.2331 12.8509L34.2848 13.3725C34.2546 13.3911 34.2199 13.4013 34.1844 13.402C34.1489 13.4027 34.1138 13.3938 34.0829 13.3764C34.0519 13.359 34.0262 13.3336 34.0083 13.3029C33.9905 13.2722 33.9812 13.2373 33.9814 13.2018V13.0501C33.9736 12.8775 33.9216 12.7098 33.8302 12.5632C33.7388 12.4167 33.6112 12.2961 33.4597 12.2132C33.3081 12.1302 33.1378 12.0878 32.9651 12.0899C32.7923 12.0919 32.623 12.1385 32.4735 12.225L31.4399 12.7561L30.4916 13.3346C30.3377 13.4212 30.2096 13.5472 30.1204 13.6997C30.0313 13.8522 29.9843 14.0256 29.9843 14.2023C29.9843 14.3789 30.0313 14.5524 30.1204 14.7048C30.2096 14.8573 30.3377 14.9833 30.4916 15.07L31.4873 15.639L32.4925 16.2174C32.6447 16.3065 32.8179 16.3535 32.9943 16.3536C33.1706 16.3538 33.3438 16.3071 33.4962 16.2184C33.6486 16.1297 33.7747 16.002 33.8617 15.8486C33.9486 15.6951 33.9931 15.5213 33.9908 15.345V15.2217C33.992 15.1873 33.9838 15.1533 33.9671 15.1232C33.9504 15.0931 33.9258 15.0682 33.896 15.051L33.4313 14.776C33.4013 14.7597 33.3677 14.7515 33.3335 14.752C33.2994 14.7525 33.266 14.7617 33.2365 14.7789C33.207 14.796 33.1823 14.8204 33.165 14.8498C33.1476 14.8792 33.1381 14.9126 33.1374 14.9467V15.2502C33.1393 15.2865 33.1313 15.3226 33.1142 15.3547C33.097 15.3868 33.0714 15.4135 33.0402 15.4321C33.0089 15.4507 32.9732 15.4603 32.9368 15.46C32.9004 15.4597 32.8649 15.4494 32.8339 15.4303L31.8856 14.8993L30.9373 14.3682C30.9078 14.3505 30.8834 14.3255 30.8665 14.2956C30.8496 14.2657 30.8407 14.2319 30.8407 14.1975C30.8407 14.1632 30.8496 14.1294 30.8665 14.0995C30.8834 14.0696 30.9078 14.0445 30.9373 14.0268L31.8856 13.4958L32.8339 12.9742C32.8642 12.9556 32.8988 12.9454 32.9343 12.9447C32.9699 12.944 33.0049 12.9529 33.0359 12.9703C33.0668 12.9877 33.0925 13.0131 33.1104 13.0438C33.1282 13.0745 33.1376 13.1094 33.1374 13.1449V13.2966C33.138 13.4719 33.1844 13.6439 33.272 13.7957C33.3596 13.9474 33.4853 14.0736 33.6368 14.1618C33.7882 14.25 33.96 14.297 34.1353 14.2983C34.3105 14.2996 34.483 14.255 34.6357 14.1691L35.6409 13.5906L36.6366 13.0121C36.7896 12.9238 36.9164 12.7964 37.0039 12.643C37.0914 12.4895 37.1365 12.3155 37.1345 12.1389C37.1326 11.9623 37.0837 11.7893 36.9929 11.6378C36.9021 11.4863 36.7726 11.3617 36.6177 11.2767ZM6.49927 13.6096C6.40923 13.998 6.18677 14.3429 5.8701 14.5852C5.55343 14.8275 5.1623 14.9519 4.76386 14.9372C4.29606 14.9372 3.84741 14.7514 3.51662 14.4206C3.18583 14.0898 3 13.6412 3 13.1734C3 12.7055 3.18583 12.2569 3.51662 11.9261C3.84741 11.5953 4.29606 11.4095 4.76386 11.4095C5.15533 11.3987 5.5386 11.5229 5.84939 11.7612C6.16018 11.9994 6.37959 12.3373 6.47082 12.7182H5.60786C5.52675 12.5699 5.4075 12.446 5.26245 12.3593C5.11739 12.2726 4.95181 12.2263 4.78283 12.225C4.53132 12.225 4.29011 12.325 4.11227 12.5028C3.93443 12.6806 3.83451 12.9218 3.83451 13.1734C3.83451 13.4249 3.93443 13.6661 4.11227 13.8439C4.29011 14.0218 4.53132 14.1217 4.78283 14.1217C4.95855 14.124 5.13097 14.0738 5.27797 13.9775C5.42497 13.8812 5.53985 13.7432 5.60786 13.5811L6.49927 13.6096ZM6.89756 14.8803V10.0629H7.73208V14.8803H6.89756ZM9.05023 13.4009C9.06717 13.6214 9.16812 13.827 9.33223 13.9752C9.49634 14.1235 9.71109 14.203 9.93216 14.1975C10.0933 14.1979 10.2519 14.1571 10.3929 14.0791C10.534 14.0011 10.6528 13.8885 10.7382 13.7518H11.6202C11.5101 14.1124 11.2818 14.4254 10.9722 14.6405C10.6625 14.8555 10.2895 14.96 9.9132 14.9372C9.6791 14.9481 9.44532 14.9099 9.22689 14.825C9.00847 14.7401 8.81025 14.6104 8.64498 14.4442C8.47972 14.278 8.35108 14.0791 8.26735 13.8603C8.18362 13.6414 8.14665 13.4074 8.15882 13.1734C8.15228 12.9387 8.19368 12.7052 8.28048 12.4871C8.36728 12.269 8.49767 12.0708 8.66366 11.9049C8.82965 11.7389 9.02776 11.6085 9.24587 11.5217C9.46398 11.4349 9.69751 11.3935 9.93216 11.4C10.166 11.3933 10.3987 11.4348 10.6158 11.5218C10.8329 11.6088 11.0299 11.7395 11.1944 11.9058C11.3589 12.0721 11.4875 12.2704 11.5721 12.4884C11.6568 12.7065 11.6957 12.9396 11.6865 13.1734C11.6963 13.2457 11.6963 13.3191 11.6865 13.3915L9.05023 13.4009ZM10.7667 12.8699C10.7407 12.6671 10.6396 12.4815 10.4833 12.3498C10.327 12.2181 10.1269 12.1499 9.92268 12.1587C9.71683 12.1515 9.51545 12.2198 9.3565 12.3508C9.19755 12.4818 9.09199 12.6665 9.05972 12.8699H10.7667ZM14.7591 14.8803V14.4441C14.6263 14.6009 14.4606 14.7264 14.2737 14.8116C14.0868 14.8969 13.8834 14.9397 13.678 14.9372C13.4522 14.935 13.2292 14.887 13.0225 14.7961C12.8158 14.7053 12.6297 14.5734 12.4754 14.4085C12.3212 14.2436 12.202 14.0491 12.125 13.8368C12.0481 13.6245 12.0151 13.3988 12.0279 13.1734C12.0191 12.9473 12.0555 12.7217 12.135 12.5099C12.2145 12.2981 12.3356 12.1044 12.4911 11.9401C12.6466 11.7757 12.8334 11.6441 13.0405 11.553C13.2476 11.4619 13.4708 11.4131 13.697 11.4095C13.8995 11.4078 14.0999 11.4511 14.2836 11.5364C14.4673 11.6217 14.6297 11.7468 14.7591 11.9026V11.4664H15.5936V14.8803H14.7591ZM14.7591 13.1734C14.7591 12.9858 14.7035 12.8024 14.5993 12.6465C14.4951 12.4905 14.3469 12.369 14.1737 12.2972C14.0004 12.2255 13.8097 12.2067 13.6258 12.2433C13.4418 12.2799 13.2728 12.3702 13.1402 12.5028C13.0076 12.6354 12.9173 12.8044 12.8807 12.9883C12.8441 13.1723 12.8629 13.363 12.9346 13.5363C13.0064 13.7095 13.128 13.8576 13.2839 13.9618C13.4399 14.066 13.6232 14.1217 13.8108 14.1217C14.0606 14.1192 14.2994 14.0182 14.4752 13.8406C14.651 13.663 14.7496 13.4232 14.7496 13.1734H14.7591Z" fill="black"/>
</svg>
