<svg width="40" height="26" viewBox="0 0 40 26" fill="none" xmlns="http://www.w3.org/2000/svg">
<path d="M29.1277 2.41498H10.8723C5.16755 2.41498 0.5 7.17931 0.5 13.0024C0.5 18.8254 5.16755 23.5898 10.8723 23.5898H29.1277C34.8324 23.5898 39.5 18.8254 39.5 13.0024C39.5 7.17931 34.8324 2.41498 29.1277 2.41498Z" fill="white"/>
<path d="M29.1277 3.27256C30.4086 3.27256 31.6533 3.53195 32.8254 4.04014C33.9612 4.53246 34.9777 5.23652 35.8593 6.13115C36.7358 7.02579 37.4255 8.06865 37.9078 9.22797C38.4057 10.4243 38.6598 11.6948 38.6598 13.0024C38.6598 14.3099 38.4057 15.5804 37.9078 16.7768C37.4255 17.9361 36.7358 18.9737 35.8593 19.8736C34.9828 20.7682 33.9612 21.4723 32.8254 21.9646C31.6533 22.4728 30.4086 22.7322 29.1277 22.7322H10.8723C9.59136 22.7322 8.34668 22.4728 7.1746 21.9646C6.03883 21.4723 5.02234 20.7682 4.14069 19.8736C3.26423 18.979 2.57447 17.9361 2.09215 16.7768C1.59428 15.5804 1.34016 14.3099 1.34016 13.0024C1.34016 11.6948 1.59428 10.4243 2.09215 9.22797C2.57447 8.06865 3.26423 7.03108 4.14069 6.13115C5.01715 5.23652 6.03883 4.53246 7.1746 4.04014C8.34668 3.53195 9.59136 3.27256 10.8723 3.27256H29.1277ZM29.1277 2.41498H10.8723C5.16755 2.41498 0.5 7.17931 0.5 13.0024C0.5 18.8254 5.16755 23.5898 10.8723 23.5898H29.1277C34.8324 23.5898 39.5 18.8254 39.5 13.0024C39.5 7.17931 34.8324 2.41498 29.1277 2.41498Z" fill="#3C4043"/>
<path d="M19.0978 13.754V16.9567H18.1021V9.04791H20.7418C21.4108 9.04791 21.9813 9.27554 22.4481 9.7308C22.9252 10.1861 23.1638 10.7419 23.1638 11.3983C23.1638 12.0706 22.9252 12.6265 22.4481 13.0764C21.9865 13.5264 21.416 13.7487 20.7418 13.7487H19.0978V13.754ZM19.0978 10.022V12.78H20.7626C21.1567 12.78 21.4886 12.6423 21.7479 12.3724C22.0124 12.1024 22.1473 11.7742 22.1473 11.4036C22.1473 11.0383 22.0124 10.7154 21.7479 10.4455C21.4886 10.1649 21.1619 10.0272 20.7626 10.0272H19.0978V10.022Z" fill="#3C4043"/>
<path d="M25.7669 11.3665C26.5033 11.3665 27.0842 11.5677 27.5094 11.97C27.9347 12.3723 28.1473 12.9229 28.1473 13.6217V16.9567H27.1983V16.205H27.1568C26.7471 16.8243 26.1973 17.1314 25.5128 17.1314C24.9267 17.1314 24.4392 16.9567 24.0451 16.602C23.6509 16.2473 23.4539 15.808 23.4539 15.2786C23.4539 14.7175 23.6613 14.2728 24.0762 13.9446C24.4911 13.6111 25.046 13.447 25.7358 13.447C26.327 13.447 26.8145 13.5581 27.1931 13.7805V13.5475C27.1931 13.1929 27.0582 12.8964 26.7834 12.6476C26.5085 12.3988 26.187 12.2771 25.8188 12.2771C25.2638 12.2771 24.823 12.5153 24.5015 12.997L23.625 12.4359C24.1073 11.7212 24.823 11.3665 25.7669 11.3665ZM24.4807 15.2945C24.4807 15.5592 24.5896 15.7815 24.8126 15.9562C25.0305 16.1309 25.2898 16.2209 25.5854 16.2209C26.0055 16.2209 26.3789 16.0621 26.7056 15.7444C27.0323 15.4268 27.1983 15.0563 27.1983 14.6275C26.8871 14.3787 26.4567 14.2516 25.9017 14.2516C25.4972 14.2516 25.1601 14.3522 24.8904 14.5481C24.6156 14.7545 24.4807 15.0033 24.4807 15.2945Z" fill="#3C4043"/>
<path d="M33.562 11.5412L30.2428 19.3335H29.216L30.4503 16.6073L28.2617 11.5412H29.3456L30.9222 15.4268H30.943L32.4781 11.5412H33.562Z" fill="#3C4043"/>
<path d="M15.1372 13.1083C15.1372 12.7769 15.1081 12.4598 15.0542 12.1549H10.8804V13.9018L13.2842 13.9023C13.1867 14.4836 12.8729 14.9791 12.3921 15.3094V16.4428H13.823C14.6585 15.6535 15.1372 14.4868 15.1372 13.1083Z" fill="#4285F4"/>
<path d="M12.3927 15.3093C11.9944 15.5835 11.4815 15.7439 10.8814 15.7439C9.72231 15.7439 8.73902 14.9467 8.38687 13.8721H6.91089V15.0409C7.64214 16.5221 9.14509 17.5385 10.8814 17.5385C12.0815 17.5385 13.0897 17.1356 13.8235 16.4422L12.3927 15.3093Z" fill="#34A853"/>
<path d="M8.24817 13.005C8.24817 12.7032 8.29744 12.4116 8.38716 12.1374V10.9685H6.91118C6.60883 11.581 6.43872 12.2723 6.43872 13.005C6.43872 13.7376 6.60934 14.429 6.91118 15.0415L8.38716 13.8726C8.29744 13.5984 8.24817 13.3067 8.24817 13.005Z" fill="#FABB05"/>
<path d="M10.8814 10.2655C11.5364 10.2655 12.123 10.4958 12.5861 10.9458L13.8541 9.6525C13.084 8.92038 12.0799 8.47095 10.8814 8.47095C9.14561 8.47095 7.64214 9.48734 6.91089 10.9685L8.38687 12.1374C8.73901 11.0627 9.72231 10.2655 10.8814 10.2655Z" fill="#E94235"/>
</svg>
